# xmcd
#
# Track frame offsets: 
#        150
#        11908
#        29235
#        44203
#        66204
#        86490
#        103576
#        119921
#        137826
#        166080
#
# Disc length: 2396 seconds
#
# Revision: 0
# Processed by: cddbd v1.5.1PL2 Copyright (c) Steve Scherf et al.
# Submitted via: ExactAudioCopy v0.95a4
#
DISCID=96095a0a
DTITLE=Uncle Tupelo - Mississippi Nights - St. Louis - 12-3-93 - Disc 
DTITLE=2
DYEAR=1993
DGENRE=Alternative
TTITLE0=Acuff-Rose
TTITLE1=Fifteen Keys
TTITLE2=We've Been Had
TTITLE3=Give Back the Key to My Heart
TTITLE4=Looking for a Way Out
TTITLE5=Gun
TTITLE6=Sandusky
TTITLE7=Postcard
TTITLE8=Willin'
TTITLE9=Truck Driving Man w/Brian Henneman
EXTD=
EXTT0=
EXTT1=
EXTT2=
EXTT3=
EXTT4=
EXTT5=
EXTT6=
EXTT7=
EXTT8=
EXTT9=
PLAYORDER=
